<svg aria-hidden="true" style="width:0;height:0;position:absolute;overflow:hidden" xmlns="http://www.w3.org/2000/svg"><defs><symbol id="icon-arrow-down" viewBox="0 0 53 32"><path d="m14.667 16.537-12-12 3.001-3.001 20.999 21.006L47.666 1.287l3.001 3.001-24 24.249-3.001-2.997-8.999-9.006z"/></symbol><symbol id="icon-facebook" viewBox="0 0 18 32"><path d="M16.984.786c-.48-.072-2.142-.214-4.072-.214-4.034 0-6.802 2.464-6.802 6.98v3.894H1.556v5.286H6.11v13.554h5.464V16.732h4.536l.696-5.286h-5.232V8.072c0-1.52.41-2.572 2.606-2.572h2.804V.786z"/></symbol><symbol id="icon-linkedin" viewBox="0 0 34 32"><path d="M8.587 11.122H1.851v20.224h6.736V11.122zm.428-6.244c-.021-1.979-1.449-3.49-3.755-3.49-2.286 0-3.794 1.509-3.794 3.49 0 1.938 1.449 3.49 3.714 3.49h.039c2.347 0 3.817-1.552 3.797-3.49zm23.794 14.877c0-6.203-3.303-9.102-7.733-9.102-3.634 0-5.225 2.021-6.103 3.406h.041v-2.935h-6.713s.08 1.897 0 20.224h6.713V20.061c0-.613.062-1.205.224-1.653.491-1.205 1.593-2.45 3.451-2.45 2.427 0 3.406 1.858 3.406 4.571v10.816h6.715V19.754z"/></symbol><symbol id="icon-pinterest" viewBox="0 0 32 32"><path d="M31.669 16.654C31.666 7.999 24.651.983 15.996.981 7.339.983.321 8.001.321 16.659c0 6.383 3.815 11.876 9.289 14.321l.1.04c-.041-1.102-.023-2.427.265-3.611 0 0 .306-1.264 2.021-8.53-.51-1.001-.51-2.491-.51-2.491 0-2.325 1.346-4.059 3.019-4.059 1.429 0 2.123 1.081 2.123 2.368 0 1.429-.919 3.57-1.39 5.55-.389 1.673.837 3.022 2.469 3.022 2.981 0 4.983-3.817 4.983-8.327 0-3.451-2.329-6.021-6.533-6.021-4.754 0-7.714 3.55-7.714 7.509 0 1.369.409 2.327 1.042 3.083.286.347.325.469.224.878-.082.286-.245.978-.327 1.243-.103.409-.43.551-.777.409-2.183-.898-3.202-3.307-3.202-6 0-4.45 3.755-9.797 11.184-9.797 6 0 9.938 4.347 9.938 8.981 0 6.162-3.429 10.754-8.469 10.754-1.696 0-3.287-.919-3.817-1.959-.919 3.611-1.102 4.306-1.102 4.306-.327 1.205-1.001 2.407-1.593 3.346a15 15 0 0 0 4.43.654h.021-.001c8.655-.003 15.671-7.018 15.673-15.673z"/></symbol><symbol id="icon-twitter" viewBox="0 0 40 32"><path d="M38.76 5.144c-1.291.58-2.788.999-4.357 1.182l-.072.007a7.713 7.713 0 0 0 3.366-4.186l.016-.054a14.868 14.868 0 0 1-4.784 1.843l-.096.016a7.654 7.654 0 0 0-5.599-2.427h-.024.001-.003A7.689 7.689 0 0 0 19.52 9.21c0 .597.072 1.192.192 1.763A21.845 21.845 0 0 1 3.884 2.964l-.031-.039a7.637 7.637 0 0 0-1.048 3.883 7.685 7.685 0 0 0 3.429 6.403 7.719 7.719 0 0 1-3.513-.996l.038.02v.096a7.685 7.685 0 0 0 6.165 7.547 8.069 8.069 0 0 1-2.024.264c-.499 0-.976-.048-1.451-.12 1.017 3.077 3.839 5.27 7.182 5.333h.007a15.304 15.304 0 0 1-9.509 3.285h-.04.002c-.643 0-1.24-.024-1.859-.096C4.555 30.711 8.623 32 12.991 32h.054-.003c14.141 0 21.88-11.715 21.88-21.88 0-.333 0-.667-.024-1a16.69 16.69 0 0 0 3.823-3.922l.036-.054z"/></symbol><symbol id="icon-youtube" viewBox="0 0 45 32"><path d="M18.261 22.285V10.312l11.525 6.021-11.525 5.952zm4.406-20.522c-8.976 0-14.928.427-14.928.427-.835.096-2.667.096-4.285 1.811 0 0-1.309 1.285-1.691 4.24-.456 3.448-.429 6.901-.429 6.901v3.237s-.024 3.453.427 6.907c.384 2.925 1.693 4.235 1.693 4.235 1.619 1.691 3.76 1.645 4.715 1.811 0 0 3.403.333 14.499.427 8.976 0 14.928-.451 14.928-.451.835-.096 2.667-.096 4.285-1.787 0 0 1.309-1.307 1.691-4.237.453-3.451.429-6.907.429-6.907v-3.229s.024-3.453-.427-6.907c-.384-2.952-1.693-4.237-1.693-4.237-1.619-1.715-3.451-1.715-4.285-1.811 0 0-5.952-.427-14.928-.427z"/></symbol><symbol id="icon-done" viewBox="0 0 31 32"><path d="M15.738.287c2.163 0 4.205.406 6.123 1.217s3.589 1.93 5.016 3.356c1.426 1.427 2.545 3.099 3.357 5.017s1.217 3.96 1.217 6.123c0 2.164-.405 4.205-1.217 6.123s-1.93 3.59-3.357 5.016c-1.427 1.427-3.098 2.545-5.016 3.357s-3.96 1.217-6.123 1.217c-2.165 0-4.205-.406-6.123-1.217s-3.59-1.93-5.016-3.357c-1.427-1.426-2.545-3.098-3.357-5.016S.025 18.164.025 16c0-2.163.406-4.205 1.217-6.123S3.171 6.288 4.599 4.86c1.426-1.425 3.098-2.545 5.016-3.356S13.574.287 15.738.287zm0 30.172c2.016 0 3.897-.38 5.644-1.144a15.561 15.561 0 0 0 4.611-3.061 15.574 15.574 0 0 0 3.061-4.611c.762-1.745 1.144-3.626 1.144-5.643 0-2.016-.382-3.898-1.144-5.644a15.62 15.62 0 0 0-3.061-4.611 15.6 15.6 0 0 0-4.611-3.061c-1.745-.762-3.627-1.144-5.643-1.144s-3.898.382-5.644 1.144a15.59 15.59 0 0 0-4.611 3.062 15.57 15.57 0 0 0-3.062 4.611c-.763 1.746-1.144 3.628-1.144 5.644 0 2.017.381 3.898 1.144 5.644s1.782 3.283 3.062 4.611a15.536 15.536 0 0 0 4.611 3.061c1.745.763 3.626 1.144 5.643 1.144zm7.893-20.066c.147-.196.356-.295.627-.295.27 0 .504.099.701.295.147.197.221.431.221.701 0 .271-.1.48-.295.627l-10.77 10.475a.343.343 0 0 1-.259.185 1.683 1.683 0 0 1-.332.037 2.03 2.03 0 0 1-.405-.037c-.123-.024-.21-.085-.258-.185l-4.205-4.205a.952.952 0 0 1-.295-.69v-.011.001c0-.27.098-.479.295-.627.147-.196.356-.295.627-.295.27 0 .504.099.701.295l3.541 3.541 10.107-9.811z"/></symbol><symbol id="icon-like" viewBox="0 0 34 32"><path d="M33.403 15.542c0 .356-.052.687-.152.991-.11.322-.265.6-.462.844l.004-.005a2.572 2.572 0 0 1-.687.61c-.255.152-.534.28-.839.381.153.255.279.522.381.801.101.28.153.598.153.953 0 .305-.052.61-.153.915a4.202 4.202 0 0 1-.392.858l.011-.019a5.146 5.146 0 0 1-.67.561l-.016.011a3.73 3.73 0 0 1-.763.419c.153.255.279.534.382.839.101.305.152.61.152.916 0 .356-.051.674-.152.953a4.606 4.606 0 0 1-.393.822l.012-.021a3.333 3.333 0 0 1-.676.641l-.01.007c-.237.17-.52.291-.827.342l-.012.002c.202.255.355.522.458.801.101.28.152.598.152.953 0 .356-.076.713-.229 1.068a2.91 2.91 0 0 1-.61.915 3.958 3.958 0 0 1-.966.6l-.026.01a2.823 2.823 0 0 1-1.124.229H15.862c-.356 0-.763-.05-1.22-.153a9.181 9.181 0 0 1-1.511-.48l.062.023a12.015 12.015 0 0 1-1.602-.604l.076.032a21.073 21.073 0 0 0-1.255-.55l-.271-.098a59.999 59.999 0 0 1-2.489-1.039l.697.277c-.585-.254-1.004-.381-1.258-.381H.15V14.093l.61-.076h5.95c.457 0 .876-.05 1.258-.153.381-.101.775-.305 1.182-.61.457-.254.978-.61 1.563-1.067a126.57 126.57 0 0 0 2.373-1.897l-.275.219c1.576-1.322 2.504-2.975 2.784-4.957.279-1.983.419-3.127.419-3.433s.076-.597.229-.877c.144-.27.352-.489.603-.644l.007-.004c.254-.203.521-.343.801-.42.239-.07.515-.112.799-.114h.001c.407 0 .813.051 1.22.152.407.103.788.331 1.144.687.355.356.635.827.839 1.411.202.585.305 1.361.305 2.326 0 .865-.064 1.691-.19 2.479a19.576 19.576 0 0 1-.53 2.389l.035-.139a12.315 12.315 0 0 1-.602 2.03l.029-.085c.09-.319-.104.173-.294.667l-.278.821h10.373c.458 0 .851.064 1.182.19.366.147.681.34.958.576l-.005-.004c.243.243.438.535.566.86l.006.017c.126.331.191.7.191 1.106zm-2.899 1.602c.254 0 .483-.038.687-.114a.918.918 0 0 0 .457-.344 2.36 2.36 0 0 0 .382-.495c.101-.178.152-.394.152-.649 0-.407-.152-.763-.457-1.067s-.713-.458-1.22-.458h-4.576c0 .052 0 .052 0 0h-7.856l.458-.915c1.423-3.509 2.136-6.331 2.136-8.466 0-1.678-.28-2.656-.839-2.936-.56-.279-1.018-.42-1.373-.42-.152 0-.381.076-.686.229s-.458.356-.458.61c0 .305-.026.814-.076 1.526-.052.713-.204 1.525-.458 2.441a15.878 15.878 0 0 1-1.106 2.822 7.702 7.702 0 0 1-2.021 2.517c-3.532 2.856-4.239 3.443-4.947 4.03l2.773-2.238c-.585.484-1.132.877-1.64 1.182a6.727 6.727 0 0 1-1.526.686 5.53 5.53 0 0 1-1.602.229H1.445V27.67h5.644c.355 0 .826.114 1.411.343.584.229 1.308.522 2.174.877.406.204.851.42 1.334.649s.954.419 1.411.572c.508.153.965.293 1.373.42.407.127.763.191 1.068.191h10.068c.254 0 .483-.05.686-.153.203-.101.381-.229.534-.381a.911.911 0 0 0 .343-.458c.076-.202.114-.406.114-.61 0-.254-.038-.469-.114-.648a1.593 1.593 0 0 0-.343-.495 1.492 1.492 0 0 0-.524-.34l-.01-.003a1.914 1.914 0 0 0-.657-.114h-.031.002-.153v-1.297h1.755c.202 0 .406-.038.61-.114.202-.076.381-.191.534-.343.101-.152.203-.33.305-.534.101-.203.152-.407.152-.61s-.051-.407-.152-.61a5.108 5.108 0 0 0-.318-.554l.012.02a5.003 5.003 0 0 0-.504-.291l-.03-.014a1.342 1.342 0 0 0-.609-.153h-.535v-1.296h1.907c.202 0 .407-.038.61-.114s.381-.191.534-.343c.153-.152.279-.33.382-.534.094-.177.149-.387.152-.609v-.001c0-.254-.051-.483-.152-.687a1.173 1.173 0 0 0-.382-.458 2.055 2.055 0 0 0-.522-.376l-.012-.005a1.33 1.33 0 0 0-.609-.152h-.611v-1.296h2.212z"/></symbol><symbol id="icon-search" viewBox="0 0 33 32"><path d="m32.149 30.21-1.658 1.658-9.158-9.158c-.512.461-1.08.879-1.688 1.237l-.049.027c-.555.332-1.205.65-1.881.916l-.092.032c-.685.264-1.409.461-2.171.592a13.2 13.2 0 0 1-2.25.198c-1.79 0-3.462-.342-5.013-1.026a13.22 13.22 0 0 1-4.066-2.763c-1.159-1.157-2.066-2.513-2.724-4.066s-.987-3.198-.987-4.935c0-1.789.328-3.46.987-5.013a12.672 12.672 0 0 1 2.724-4.065A12.698 12.698 0 0 1 8.189 1.12C9.741.463 11.412.133 13.202.133c1.736 0 3.381.33 4.934.987a12.725 12.725 0 0 1 4.066 2.724 13.28 13.28 0 0 1 2.763 4.066c.683 1.553 1.026 3.224 1.026 5.013 0 .737-.067 1.488-.198 2.25a11.425 11.425 0 0 1-.619 2.249l.027-.078a13.604 13.604 0 0 1-.983 2.038l.035-.064a10.478 10.478 0 0 1-1.272 1.746l.008-.009 9.158 9.158zM1.754 12.921c0 1.579.289 3.053.869 4.421a11.365 11.365 0 0 0 2.447 3.632 11.74 11.74 0 0 0 3.595 2.457l.075.029c1.394.606 2.882.908 4.461.908s3.052-.302 4.421-.908a11.936 11.936 0 0 0 3.631-2.487 11.945 11.945 0 0 0 2.457-3.556l.03-.075c.605-1.368.908-2.842.908-4.421s-.303-3.065-.908-4.46a11.847 11.847 0 0 0-2.487-3.671 11.381 11.381 0 0 0-3.557-2.419l-.074-.028c-1.37-.578-2.842-.868-4.421-.868s-3.067.29-4.461.869a11.285 11.285 0 0 0-3.671 2.448 11.236 11.236 0 0 0-2.42 3.597l-.028.074a11.518 11.518 0 0 0-.868 4.46z"/></symbol><symbol id="icon-burger" viewBox="0 0 32 32"><path d="M28 10H4a1 1 0 0 1 0-2h24a1 1 0 0 1 0 2zm0 7H4a1 1 0 0 1 0-2h24a1 1 0 0 1 0 2zm0 7H4a1 1 0 0 1 0-2h24a1 1 0 0 1 0 2z"/></symbol><symbol id="icon-close-btn" viewBox="0 0 32 32"><path d="m2.52 2 26.96 28M2 29.48 30 2.52"/></symbol></defs></svg>