<!-- Generated by IcoMoon.io -->
<svg version="1.1" xmlns="http://www.w3.org/2000/svg" width="1007" height="1024" viewBox="0 0 1007 1024">
<title></title>
<g id="icomoon-ignore">
</g>
<path fill="#ff6363" d="M503.607 9.182c69.229 0 134.564 12.976 195.937 38.946s114.856 61.776 160.516 107.402c45.627 45.66 81.45 99.16 107.419 160.533s38.946 126.707 38.946 195.937c0 69.263-12.976 134.547-38.946 195.937-25.969 61.373-61.776 114.889-107.419 160.516-45.66 45.66-99.143 81.45-160.516 107.419-61.373 25.953-126.707 38.946-195.937 38.946-69.279 0-134.564-12.993-195.937-38.946-61.373-25.969-114.889-61.759-160.516-107.419-45.66-45.627-81.45-99.143-107.419-160.516-25.969-61.39-38.946-126.674-38.946-195.937 0-69.229 12.976-134.564 38.946-195.937s61.742-114.856 107.419-160.533c45.627-45.61 99.143-81.433 160.516-107.402s126.674-38.946 195.937-38.946zM503.607 974.68c64.512 0 124.71-12.17 180.593-36.595 55.833-24.375 105.052-57.008 147.54-97.951 40.91-42.488 73.543-91.656 97.968-147.557 24.375-55.833 36.595-116.031 36.595-180.577 0-64.512-12.221-124.727-36.595-180.593-24.425-55.85-57.075-105.052-97.968-147.557-42.488-40.893-91.707-73.527-147.557-97.951-55.85-24.375-116.048-36.595-180.577-36.595-64.546 0-124.743 12.221-180.593 36.595-55.884 24.425-105.052 57.075-147.54 97.968-40.943 42.488-73.577 91.69-97.968 147.54-24.408 55.884-36.595 116.081-36.595 180.593 0 64.546 12.187 124.727 36.595 180.593 24.391 55.884 57.025 105.052 97.968 147.54 42.488 40.943 91.656 73.577 147.557 97.968 55.833 24.408 116.031 36.595 180.577 36.595zM756.199 332.582c4.717-6.262 11.398-9.434 20.060-9.434 8.628 0 16.115 3.173 22.427 9.434 4.717 6.312 7.084 13.799 7.084 22.427 0 8.679-3.19 15.36-9.451 20.077l-344.635 335.201c-1.595 3.19-4.365 5.137-8.276 5.909-3.945 0.806-7.487 1.175-10.626 1.175-4.717 0-9.065-0.369-12.976-1.175-3.945-0.772-6.715-2.736-8.259-5.909l-134.564-134.547c-5.829-5.568-9.453-13.402-9.453-22.082 0-0.121 0.001-0.243 0.002-0.364v0.018c0-8.628 3.139-15.343 9.451-20.077 4.717-6.262 11.398-9.434 20.060-9.434 8.628 0 16.115 3.173 22.427 9.434l113.311 113.311 323.416-313.965z"></path>
</svg>
