<svg aria-hidden="true" style="position: absolute; width: 0; height: 0; overflow: hidden;" version="1.1" xmlns="http://www.w3.org/2000/svg" xmlns:xlink="http://www.w3.org/1999/xlink">
<defs>
<symbol id="icon-arrow-down" viewBox="0 0 53 32"><path d="M14.667 16.537l-12-12 3.001-3.001 20.999 21.006 20.999-21.255 3.001 3.001-24 24.249-3.001-2.997-8.999-9.006z"></path></symbol>
<symbol id="icon-facebook" viewBox="0 0 18 32"><path d="M16.984 0.786c-0.48-0.072-2.142-0.214-4.072-0.214-4.034 0-6.802 2.464-6.802 6.98v3.894h-4.554v5.286h4.554v13.554h5.464v-13.554h4.536l0.696-5.286h-5.232v-3.374c0-1.52 0.41-2.572 2.606-2.572h2.804v-4.714z"></path></symbol>
<symbol id="icon-linkedin" viewBox="0 0 34 32"><path d="M8.587 11.122h-6.736v20.224h6.736v-20.224zM9.015 4.878c-0.021-1.979-1.449-3.49-3.755-3.49-2.286 0-3.794 1.509-3.794 3.49 0 1.938 1.449 3.49 3.714 3.49h0.039c2.347 0 3.817-1.552 3.797-3.49zM32.809 19.755c0-6.203-3.303-9.102-7.733-9.102-3.634 0-5.225 2.021-6.103 3.406h0.041v-2.935h-6.713s0.080 1.897 0 20.224h6.713v-11.287c0-0.613 0.062-1.205 0.224-1.653 0.491-1.205 1.593-2.45 3.451-2.45 2.427 0 3.406 1.858 3.406 4.571v10.816h6.715v-11.591z"></path></symbol>
<symbol id="icon-pinterest" viewBox="0 0 32 32"><path d="M31.669 16.654c-0.003-8.655-7.018-15.671-15.673-15.673h-0c-8.657 0.002-15.675 7.020-15.675 15.678 0 6.383 3.815 11.876 9.289 14.321l0.1 0.040c-0.041-1.102-0.023-2.427 0.265-3.611 0 0 0.306-1.264 2.021-8.53-0.51-1.001-0.51-2.491-0.51-2.491 0-2.325 1.346-4.059 3.019-4.059 1.429 0 2.123 1.081 2.123 2.368 0 1.429-0.919 3.57-1.39 5.55-0.389 1.673 0.837 3.022 2.469 3.022 2.981 0 4.983-3.817 4.983-8.327 0-3.451-2.329-6.021-6.533-6.021-4.754 0-7.714 3.55-7.714 7.509 0 1.369 0.409 2.327 1.042 3.083 0.286 0.347 0.325 0.469 0.224 0.878-0.082 0.286-0.245 0.978-0.327 1.243-0.103 0.409-0.43 0.551-0.777 0.409-2.183-0.898-3.202-3.307-3.202-6 0-4.45 3.755-9.797 11.184-9.797 6 0 9.938 4.347 9.938 8.981 0 6.162-3.429 10.754-8.469 10.754-1.696 0-3.287-0.919-3.817-1.959-0.919 3.611-1.102 4.306-1.102 4.306-0.327 1.205-1.001 2.407-1.593 3.346 1.326 0.415 2.85 0.654 4.43 0.654 0.007 0 0.014 0 0.021 0h-0.001c8.655-0.003 15.671-7.018 15.673-15.673v-0z"></path></symbol>
<symbol id="icon-twitter" viewBox="0 0 40 32"><path d="M38.76 5.144c-1.291 0.58-2.788 0.999-4.357 1.182l-0.072 0.007c1.59-0.957 2.786-2.431 3.366-4.186l0.016-0.054c-1.404 0.851-3.040 1.497-4.784 1.843l-0.096 0.016c-1.403-1.495-3.392-2.427-5.599-2.427-0.008 0-0.016 0-0.024 0h0.001c-0.001 0-0.002 0-0.003 0-4.245 0-7.686 3.441-7.688 7.685v0c0 0.597 0.072 1.192 0.192 1.763-6.41-0.335-12.048-3.383-15.828-8.009l-0.031-0.039c-0.667 1.144-1.048 2.453-1.048 3.883 0 2.667 1.36 5.024 3.429 6.403-1.283-0.051-2.473-0.407-3.513-0.996l0.038 0.020v0.096c0 3.739 2.64 6.835 6.165 7.547-0.643 0.168-1.333 0.264-2.024 0.264-0.499 0-0.976-0.048-1.451-0.12 1.017 3.077 3.839 5.27 7.182 5.333l0.007 0c-2.591 2.048-5.905 3.285-9.509 3.285-0.013 0-0.027-0-0.040-0h0.002c-0.643 0-1.24-0.024-1.859-0.096 3.323 2.167 7.391 3.456 11.759 3.456 0.018 0 0.036-0 0.054-0h-0.003c14.141 0 21.88-11.715 21.88-21.88 0-0.333 0-0.667-0.024-1 1.507-1.112 2.785-2.427 3.823-3.922l0.036-0.054z"></path></symbol>
<symbol id="icon-youtube" viewBox="0 0 45 32"><path d="M18.261 22.285v-11.973l11.525 6.021-11.525 5.952zM22.667 1.763c-8.976 0-14.928 0.427-14.928 0.427-0.835 0.096-2.667 0.096-4.285 1.811 0 0-1.309 1.285-1.691 4.24-0.456 3.448-0.429 6.901-0.429 6.901v3.237s-0.024 3.453 0.427 6.907c0.384 2.925 1.693 4.235 1.693 4.235 1.619 1.691 3.76 1.645 4.715 1.811 0 0 3.403 0.333 14.499 0.427 8.976 0 14.928-0.451 14.928-0.451 0.835-0.096 2.667-0.096 4.285-1.787 0 0 1.309-1.307 1.691-4.237 0.453-3.451 0.429-6.907 0.429-6.907v-3.229s0.024-3.453-0.427-6.907c-0.384-2.952-1.693-4.237-1.693-4.237-1.619-1.715-3.451-1.715-4.285-1.811 0 0-5.952-0.427-14.928-0.427z"></path></symbol>
<symbol id="icon-done" viewBox="0 0 31 32"><path d="M15.738 0.287c2.163 0 4.205 0.406 6.123 1.217s3.589 1.93 5.016 3.356c1.426 1.427 2.545 3.099 3.357 5.017s1.217 3.96 1.217 6.123c0 2.164-0.405 4.205-1.217 6.123s-1.93 3.59-3.357 5.016c-1.427 1.427-3.098 2.545-5.016 3.357s-3.96 1.217-6.123 1.217c-2.165 0-4.205-0.406-6.123-1.217s-3.59-1.93-5.016-3.357c-1.427-1.426-2.545-3.098-3.357-5.016s-1.217-3.959-1.217-6.123c0-2.163 0.406-4.205 1.217-6.123s1.929-3.589 3.357-5.017c1.426-1.425 3.098-2.545 5.016-3.356s3.959-1.217 6.123-1.217zM15.738 30.459c2.016 0 3.897-0.38 5.644-1.144 1.745-0.762 3.283-1.782 4.611-3.061 1.278-1.328 2.298-2.864 3.061-4.611 0.762-1.745 1.144-3.626 1.144-5.643 0-2.016-0.382-3.898-1.144-5.644-0.763-1.745-1.784-3.283-3.061-4.611-1.328-1.278-2.866-2.298-4.611-3.061-1.745-0.762-3.627-1.144-5.643-1.144s-3.898 0.382-5.644 1.144c-1.746 0.763-3.283 1.784-4.611 3.062-1.279 1.328-2.299 2.865-3.062 4.611-0.763 1.746-1.144 3.628-1.144 5.644 0 2.017 0.381 3.898 1.144 5.644s1.782 3.283 3.062 4.611c1.328 1.279 2.864 2.299 4.611 3.061 1.745 0.763 3.626 1.144 5.643 1.144zM23.631 10.393c0.147-0.196 0.356-0.295 0.627-0.295 0.27 0 0.504 0.099 0.701 0.295 0.147 0.197 0.221 0.431 0.221 0.701 0 0.271-0.1 0.48-0.295 0.627l-10.77 10.475c-0.050 0.1-0.136 0.161-0.259 0.185-0.123 0.025-0.234 0.037-0.332 0.037-0.147 0-0.283-0.012-0.405-0.037-0.123-0.024-0.21-0.085-0.258-0.185l-4.205-4.205c-0.182-0.174-0.295-0.419-0.295-0.69 0-0.004 0-0.008 0-0.011v0.001c0-0.27 0.098-0.479 0.295-0.627 0.147-0.196 0.356-0.295 0.627-0.295 0.27 0 0.504 0.099 0.701 0.295l3.541 3.541 10.107-9.811z"></path></symbol>
<symbol id="icon-like" viewBox="0 0 34 32"><path d="M33.403 15.542c0 0.356-0.052 0.687-0.152 0.991-0.11 0.322-0.265 0.6-0.462 0.844l0.004-0.005c-0.204 0.255-0.433 0.458-0.687 0.61-0.255 0.152-0.534 0.28-0.839 0.381 0.153 0.255 0.279 0.522 0.381 0.801 0.101 0.28 0.153 0.598 0.153 0.953 0 0.305-0.052 0.61-0.153 0.915-0.107 0.322-0.236 0.599-0.392 0.858l0.011-0.019c-0.206 0.205-0.431 0.393-0.67 0.561l-0.016 0.011c-0.255 0.179-0.509 0.318-0.763 0.419 0.153 0.255 0.279 0.534 0.382 0.839 0.101 0.305 0.152 0.61 0.152 0.916 0 0.356-0.051 0.674-0.152 0.953-0.113 0.309-0.242 0.573-0.393 0.822l0.012-0.021c-0.198 0.248-0.424 0.462-0.676 0.641l-0.010 0.007c-0.237 0.17-0.52 0.291-0.827 0.342l-0.012 0.002c0.202 0.255 0.355 0.522 0.458 0.801 0.101 0.28 0.152 0.598 0.152 0.953 0 0.356-0.076 0.713-0.229 1.068-0.151 0.355-0.357 0.659-0.61 0.915l0-0c-0.285 0.241-0.612 0.445-0.966 0.6l-0.026 0.010c-0.332 0.145-0.718 0.229-1.124 0.229-0.007 0-0.014-0-0.021-0h-10.066c-0.356 0-0.763-0.050-1.22-0.153-0.562-0.129-1.046-0.286-1.511-0.48l0.062 0.023c-0.608-0.184-1.113-0.378-1.602-0.604l0.076 0.032c-0.244-0.124-0.747-0.342-1.255-0.55l-0.271-0.098c-1.311-0.521-1.901-0.778-2.489-1.039l0.697 0.277c-0.585-0.254-1.004-0.381-1.258-0.381h-6.941v-14.873l0.61-0.076h5.95c0.457 0 0.876-0.050 1.258-0.153 0.381-0.101 0.775-0.305 1.182-0.61 0.457-0.254 0.978-0.61 1.563-1.067 1.013-0.792 1.695-1.342 2.373-1.897l-0.275 0.219c1.576-1.322 2.504-2.975 2.784-4.957 0.279-1.983 0.419-3.127 0.419-3.433s0.076-0.597 0.229-0.877c0.144-0.27 0.352-0.489 0.603-0.644l0.007-0.004c0.254-0.203 0.521-0.343 0.801-0.42 0.239-0.070 0.515-0.112 0.799-0.114h0.001c0.407 0 0.813 0.051 1.22 0.152 0.407 0.103 0.788 0.331 1.144 0.687 0.355 0.356 0.635 0.827 0.839 1.411 0.202 0.585 0.305 1.361 0.305 2.326 0 0.865-0.064 1.691-0.19 2.479-0.143 0.888-0.315 1.647-0.53 2.389l0.035-0.139c-0.158 0.753-0.355 1.404-0.602 2.030l0.029-0.085c0.090-0.319-0.104 0.173-0.294 0.667l-0.278 0.821h10.373c0.458 0 0.851 0.064 1.182 0.19 0.366 0.147 0.681 0.34 0.958 0.576l-0.005-0.004c0.243 0.243 0.438 0.535 0.566 0.86l0.006 0.017c0.126 0.331 0.191 0.7 0.191 1.106zM30.504 17.144c0.254 0 0.483-0.038 0.687-0.114 0.202-0.076 0.355-0.191 0.457-0.344 0.153-0.152 0.279-0.317 0.382-0.495 0.101-0.178 0.152-0.394 0.152-0.649 0-0.407-0.152-0.763-0.457-1.067s-0.713-0.458-1.22-0.458h-4.576c0 0.052 0 0.052 0 0h-7.856l0.458-0.915c1.423-3.509 2.136-6.331 2.136-8.466 0-1.678-0.28-2.656-0.839-2.936-0.56-0.279-1.018-0.42-1.373-0.42-0.152 0-0.381 0.076-0.686 0.229s-0.458 0.356-0.458 0.61c0 0.305-0.026 0.814-0.076 1.526-0.052 0.713-0.204 1.525-0.458 2.441-0.255 0.915-0.624 1.857-1.106 2.822-0.484 0.966-1.157 1.806-2.021 2.517-3.532 2.856-4.239 3.443-4.947 4.030l2.773-2.238c-0.585 0.484-1.132 0.877-1.64 1.182-0.509 0.305-1.018 0.534-1.526 0.686-0.509 0.153-1.042 0.229-1.602 0.229h-5.263v12.356h5.644c0.355 0 0.826 0.114 1.411 0.343 0.584 0.229 1.308 0.522 2.174 0.877 0.406 0.204 0.851 0.42 1.334 0.649s0.954 0.419 1.411 0.572c0.508 0.153 0.965 0.293 1.373 0.42 0.407 0.127 0.763 0.191 1.068 0.191h10.068c0.254 0 0.483-0.050 0.686-0.153 0.203-0.101 0.381-0.229 0.534-0.381 0.152-0.101 0.267-0.254 0.343-0.458 0.076-0.202 0.114-0.406 0.114-0.61 0-0.254-0.038-0.469-0.114-0.648-0.086-0.193-0.202-0.357-0.343-0.495l-0-0c-0.147-0.148-0.326-0.264-0.524-0.34l-0.010-0.003c-0.195-0.072-0.421-0.114-0.657-0.114-0.010 0-0.021 0-0.031 0l0.002-0h-0.153v-1.297h1.755c0.202 0 0.406-0.038 0.61-0.114 0.202-0.076 0.381-0.191 0.534-0.343 0.101-0.152 0.203-0.33 0.305-0.534 0.101-0.203 0.152-0.407 0.152-0.61s-0.051-0.407-0.152-0.61c-0.105-0.211-0.207-0.386-0.318-0.554l0.012 0.020c-0.148-0.098-0.323-0.2-0.504-0.291l-0.030-0.014c-0.177-0.094-0.387-0.15-0.609-0.153h-0.535v-1.296h1.907c0.202 0 0.407-0.038 0.61-0.114s0.381-0.191 0.534-0.343c0.153-0.152 0.279-0.33 0.382-0.534 0.094-0.177 0.149-0.387 0.152-0.609v-0.001c0-0.254-0.051-0.483-0.152-0.687-0.103-0.203-0.229-0.355-0.382-0.458-0.152-0.151-0.328-0.278-0.522-0.376l-0.012-0.005c-0.177-0.094-0.387-0.15-0.609-0.152h-0.611v-1.296h2.212z"></path></symbol>
<symbol id="icon-search" viewBox="0 0 33 32"><path d="M32.149 30.21l-1.658 1.658-9.158-9.158c-0.512 0.461-1.080 0.879-1.688 1.237l-0.049 0.027c-0.555 0.332-1.205 0.65-1.881 0.916l-0.092 0.032c-0.685 0.264-1.409 0.461-2.171 0.592-0.764 0.132-1.514 0.198-2.25 0.198-1.79 0-3.462-0.342-5.013-1.026-1.553-0.684-2.909-1.605-4.066-2.763-1.159-1.157-2.066-2.513-2.724-4.066s-0.987-3.198-0.987-4.935c0-1.789 0.328-3.46 0.987-5.013 0.657-1.551 1.565-2.907 2.724-4.065 1.157-1.157 2.512-2.065 4.066-2.724 1.552-0.657 3.223-0.987 5.013-0.987 1.736 0 3.381 0.33 4.934 0.987 1.552 0.659 2.907 1.566 4.066 2.724 1.157 1.158 2.078 2.514 2.763 4.066 0.683 1.553 1.026 3.224 1.026 5.013 0 0.737-0.067 1.488-0.198 2.25-0.142 0.823-0.347 1.553-0.619 2.249l0.027-0.078c-0.299 0.769-0.617 1.419-0.983 2.038l0.035-0.064c-0.385 0.657-0.802 1.225-1.272 1.746l0.008-0.009 9.158 9.158zM1.754 12.921c0 1.579 0.289 3.053 0.869 4.421 0.603 1.413 1.429 2.619 2.447 3.632l0 0c1.027 1.028 2.245 1.866 3.595 2.457l0.075 0.029c1.394 0.606 2.882 0.908 4.461 0.908s3.052-0.302 4.421-0.908c1.409-0.628 2.612-1.465 3.631-2.487l0-0c1.021-1.019 1.858-2.223 2.457-3.556l0.030-0.075c0.605-1.368 0.908-2.842 0.908-4.421s-0.303-3.065-0.908-4.46c-0.622-1.425-1.46-2.643-2.487-3.671l0 0c-1.014-1.017-2.219-1.843-3.557-2.419l-0.074-0.028c-1.37-0.578-2.842-0.868-4.421-0.868s-3.067 0.29-4.461 0.869c-1.429 0.597-2.648 1.424-3.671 2.448l-0 0c-1.024 1.023-1.851 2.242-2.42 3.597l-0.028 0.074c-0.579 1.395-0.868 2.882-0.868 4.46z"></path></symbol>
<symbol id="icon-burger" viewBox="0 0 32 32"><path d="M28 10h-24c-0.552 0-1-0.448-1-1s0.448-1 1-1v0h24c0.552 0 1 0.448 1 1s-0.448 1-1 1v0zM28 17h-24c-0.552 0-1-0.448-1-1s0.448-1 1-1v0h24c0.552 0 1 0.448 1 1s-0.448 1-1 1v0zM28 24h-24c-0.552 0-1-0.448-1-1s0.448-1 1-1v0h24c0.552 0 1 0.448 1 1s-0.448 1-1 1v0z"></path></symbol>
<symbol id="icon-close-btn" viewBox="0 0 32 32"><path d="M2.52 2l26.96 28M2 29.48l28-26.96"></path></symbol>
</defs>
</svg>
