<!-- Generated by IcoMoon.io -->
<svg version="1.1" xmlns="http://www.w3.org/2000/svg" width="1076" height="1024" viewBox="0 0 1076 1024">
<title></title>
<g id="icomoon-ignore">
</g>
<path fill="#00a2ff" d="M1068.882 497.352c0 11.403-1.649 21.973-4.877 31.727-3.507 10.296-8.484 19.21-14.779 27.017l0.131-0.167c-6.526 8.157-13.85 14.648-21.973 19.525-8.157 4.877-17.078 8.956-26.85 12.201 4.894 8.157 8.938 16.714 12.201 25.635 3.246 8.956 4.894 19.144 4.894 30.512 0 9.754-1.649 19.508-4.894 29.279-3.424 10.288-7.553 19.164-12.543 27.463l0.342-0.614c-6.606 6.571-13.779 12.587-21.434 17.963l-0.522 0.347c-8.157 5.727-16.297 10.171-24.42 13.416 4.894 8.157 8.938 17.078 12.219 26.85 3.228 9.771 4.86 19.525 4.86 29.297 0 11.385-1.631 21.573-4.86 30.494-3.632 9.882-7.742 18.334-12.575 26.299l0.374-0.664c-6.333 7.943-13.568 14.787-21.646 20.52l-0.326 0.22c-7.582 5.428-16.651 9.296-26.474 10.935l-0.375 0.052c6.474 8.157 11.368 16.696 14.648 25.617 3.246 8.973 4.877 19.144 4.877 30.512 0 11.403-2.43 22.806-7.324 34.191-4.827 11.371-11.416 21.087-19.533 29.287l0.008-0.008c-9.13 7.696-19.589 14.245-30.904 19.204l-0.823 0.321c-10.616 4.632-22.984 7.326-35.982 7.326-0.225 0-0.449-0.001-0.674-0.002h-322.108c-11.403 0-24.402-1.614-39.051-4.894-17.99-4.135-33.472-9.161-48.343-15.358l1.968 0.727c-19.445-5.891-35.624-12.111-51.251-19.323l2.446 1.012c-7.813-3.967-23.902-10.95-40.156-17.614l-8.666-3.144c-41.946-16.685-60.846-24.892-79.659-33.26l22.298 8.857c-18.71-8.123-32.143-12.201-40.266-12.201h-222.121v-475.934l19.525-2.43h190.395c14.631 0 28.047-1.614 40.266-4.894 12.184-3.228 24.784-9.754 37.836-19.525 14.631-8.123 31.293-19.525 50.020-34.156 32.405-25.355 54.245-42.939 75.932-60.703l-8.816 7.003c50.419-42.296 80.132-95.197 89.088-158.633 8.921-63.471 13.416-100.074 13.416-109.846s2.447-19.092 7.324-28.065c4.617-8.636 11.25-15.658 19.294-20.608l0.231-0.132c8.123-6.491 16.662-10.986 25.635-13.433 7.661-2.247 16.47-3.573 25.578-3.645h0.039c13.017 0 26.017 1.631 39.051 4.86 13.017 3.298 25.218 10.604 36.621 21.973 11.368 11.403 20.306 26.468 26.85 45.16 6.474 18.727 9.754 43.546 9.754 74.44 0 27.683-2.048 54.116-6.092 79.317-4.566 28.425-10.087 52.718-16.967 76.434l1.104-4.442c-5.061 24.090-11.372 44.917-19.252 64.955l0.941-2.717c2.871-10.192-3.317 5.545-9.404 21.332l-8.907 26.275h331.932c14.648 0 27.231 2.048 37.836 6.092 11.708 4.702 21.798 10.874 30.664 18.437l-0.152-0.127c7.791 7.764 14 17.111 18.103 27.519l0.19 0.546c4.044 10.587 6.109 22.389 6.109 35.406zM976.132 548.604c8.123 0 15.447-1.215 21.973-3.645 6.474-2.447 11.368-6.109 14.631-11.004 4.894-4.86 8.938-10.136 12.219-15.846 3.228-5.693 4.86-12.6 4.86-20.758 0-13.017-4.86-24.402-14.631-34.156-9.754-9.771-22.806-14.666-39.051-14.666h-146.432c0 1.649 0 1.649 0 0h-251.401l14.648-29.279c45.542-112.276 68.348-202.578 68.348-270.926 0-53.682-8.973-84.992-26.85-93.948-17.929-8.938-32.577-13.433-43.945-13.433-4.86 0-12.201 2.43-21.955 7.324-9.771 4.877-14.648 11.403-14.648 19.525 0 9.771-0.833 26.034-2.43 48.822-1.649 22.806-6.526 48.805-14.648 78.102-8.157 29.279-19.959 59.409-35.406 90.303-15.481 30.928-37.020 57.778-64.668 80.532-113.016 91.405-135.661 110.181-158.291 128.974l88.728-71.613c-18.727 15.481-36.222 28.065-52.467 37.836-16.28 9.754-32.577 17.078-48.822 21.955-16.28 4.894-33.358 7.324-51.252 7.324h-168.405v395.403h180.606c11.368 0 26.433 3.645 45.16 10.969 18.675 7.324 41.863 16.714 69.563 28.065 13 6.526 27.231 13.433 42.696 20.758 15.447 7.324 30.512 13.416 45.16 18.293 16.245 4.894 30.894 9.39 43.928 13.433 13.017 4.079 24.42 6.109 34.191 6.109h322.161c8.123 0 15.447-1.614 21.955-4.894 6.491-3.246 12.201-7.324 17.096-12.201 4.86-3.246 8.539-8.123 10.969-14.648 2.447-6.474 3.662-13 3.662-19.525 0-8.123-1.215-15.013-3.645-20.74-2.756-6.169-6.455-11.43-10.977-15.854l-0.009-0.009c-4.717-4.721-10.417-8.458-16.768-10.877l-0.327-0.11c-6.253-2.313-13.476-3.652-21.012-3.652-0.332 0-0.663 0.003-0.993 0.008l0.050-0.001h-4.894v-41.498h56.146c6.474 0 13-1.215 19.525-3.662 6.474-2.447 12.201-6.109 17.078-10.986 3.246-4.877 6.491-10.57 9.771-17.078 3.228-6.491 4.86-13.017 4.86-19.525 0-6.491-1.631-13.017-4.86-19.525-3.366-6.752-6.615-12.347-10.163-17.728l0.392 0.632c-4.743-3.151-10.333-6.394-16.114-9.313l-0.964-0.441c-5.669-3-12.376-4.799-19.495-4.894h-17.126v-41.481h61.023c6.474 0 13.017-1.215 19.525-3.662 6.491-2.43 12.201-6.109 17.078-10.986 4.894-4.877 8.921-10.57 12.219-17.096 2.995-5.664 4.783-12.369 4.859-19.484v-0.024c0-8.123-1.631-15.447-4.86-21.973-3.298-6.491-7.324-11.368-12.219-14.648-4.878-4.823-10.51-8.897-16.7-12.028l-0.378-0.173c-5.67-2.994-12.378-4.787-19.497-4.877h-19.553v-41.481h70.777z"></path>
</svg>
