<!-- Generated by IcoMoon.io -->
<svg version="1.1" xmlns="http://www.w3.org/2000/svg" width="1042" height="1024" viewBox="0 0 1042 1024">
<title></title>
<g id="icomoon-ignore">
</g>
<path fill="#5474fd" d="M1028.779 966.728l-53.068 53.068-293.044-293.062c-16.373 14.752-34.565 28.117-54.018 39.569l-1.565 0.852c-17.769 10.613-38.56 20.803-60.199 29.305l-2.947 1.020c-21.917 8.444-45.092 14.749-69.488 18.935-24.432 4.222-48.433 6.324-71.985 6.324-57.29 0-110.772-10.941-160.427-32.84-49.709-21.881-93.076-51.362-130.102-88.423-37.080-37.026-66.111-80.411-87.166-130.102-21.055-49.673-31.582-102.328-31.582-157.912 0-57.236 10.509-110.718 31.582-160.427 21.037-49.637 50.086-93.022 87.166-130.084 37.008-37.026 80.393-66.093 130.102-87.166 49.655-21.037 103.137-31.582 160.427-31.582 55.565 0 108.185 10.545 157.894 31.582 49.655 21.073 93.040 50.122 130.102 87.166 37.008 37.062 66.506 80.447 88.423 130.102 21.863 49.691 32.84 103.172 32.84 160.427 0 23.588-2.138 47.607-6.324 71.985-4.537 26.351-11.111 49.691-19.794 71.976l0.859-2.505c-9.56 24.618-19.749 45.413-31.444 65.213l1.119-2.048c-12.312 21.017-25.676 39.209-40.689 55.886l0.268-0.303 293.062 293.044zM56.14 413.48c0 50.517 9.234 97.693 27.792 141.456 19.292 45.211 45.73 83.799 78.312 116.218l0.015 0.015c32.879 32.896 71.835 59.713 115.042 78.625l2.413 0.942c44.607 19.384 92.214 29.049 142.749 29.049 50.517 0 97.657-9.665 141.474-29.049 45.087-20.108 83.595-46.892 116.189-79.576l0.008-0.008c32.685-32.613 59.468-71.125 78.618-113.806l0.966-2.409c19.348-43.763 29.049-90.938 29.049-141.474 0-50.517-9.701-98.088-29.049-142.731-19.911-45.607-46.727-84.562-79.59-117.478l0.005 0.005c-32.452-32.547-71.019-58.977-113.834-77.421l-2.363-0.906c-43.834-18.504-90.956-27.774-141.474-27.774-50.535 0-98.142 9.27-142.749 27.792-45.714 19.098-84.737 45.568-117.47 78.325l-0.002 0.002c-32.766 32.725-59.237 71.744-77.446 115.090l-0.881 2.365c-18.54 44.643-27.774 92.214-27.774 142.731z"></path>
</svg>
